<svg xmlns="http://www.w3.org/2000/svg" viewBox="0 0 64 64">
  <defs>
    <linearGradient id="bg" x1="0" y1="0" x2="64" y2="64" gradientUnits="userSpaceOnUse">
      <stop offset="0" stop-color="#3D2817"/>
      <stop offset="1" stop-color="#150B06"/>
    </linearGradient>
    <linearGradient id="cup" x1="14" y1="22" x2="48" y2="56" gradientUnits="userSpaceOnUse">
      <stop offset="0" stop-color="#F5E6D3"/>
      <stop offset="1" stop-color="#D97706"/>
    </linearGradient>
    <linearGradient id="brew" x1="20" y1="28" x2="40" y2="40" gradientUnits="userSpaceOnUse">
      <stop offset="0" stop-color="#92400E"/>
      <stop offset="1" stop-color="#451A03"/>
    </linearGradient>
  </defs>

  <rect width="64" height="64" rx="14" fill="url(#bg)"/>

  <path d="M19 27 h24 v14 a10 10 0 0 1 -10 10 h-4 a10 10 0 0 1 -10 -10 z"
        fill="url(#cup)" stroke="#FAF3E7" stroke-width="1.4" stroke-linejoin="round"/>

  <ellipse cx="31" cy="29" rx="11.5" ry="2.6" fill="url(#brew)"/>

  <path d="M43 30 h3 a5 5 0 0 1 0 10 h-3"
        fill="none" stroke="#FAF3E7" stroke-width="2.6" stroke-linecap="round"/>

  <path d="M23 12 c-3 3 -3 6 0 9" fill="none" stroke="#F5E6D3" stroke-width="2.4" stroke-linecap="round" opacity="0.85"/>
  <path d="M31 9  c-3 3 -3 7 0 10" fill="none" stroke="#F5E6D3" stroke-width="2.4" stroke-linecap="round" opacity="0.7"/>
  <path d="M39 12 c-3 3 -3 6 0 9" fill="none" stroke="#F5E6D3" stroke-width="2.4" stroke-linecap="round" opacity="0.85"/>
</svg>
